<svg width="32" height="32" viewBox="0 0 32 32" fill="none" xmlns="http://www.w3.org/2000/svg">
<path d="M23 20C24.4167 20.042 25.5939 20.5314 26.5312 21.4688C27.4686 22.4061 27.958 23.5833 28 25V28C28 28.292 27.9061 28.5314 27.7188 28.7188C27.5314 28.9061 27.292 29 27 29H5C4.708 29 4.46858 28.9061 4.28125 28.7188C4.09392 28.5314 4 28.292 4 28V25C4.042 23.5833 4.53142 22.4061 5.46875 21.4688C6.40608 20.5314 7.58333 20.042 9 20H23ZM16 3C17.9793 3.042 19.6305 3.72421 20.9531 5.04688C22.2758 6.36954 22.958 8.02067 23 10C22.958 11.9793 22.2758 13.6305 20.9531 14.9531C19.6305 16.2758 17.9793 16.958 16 17C14.0207 16.958 12.3695 16.2758 11.0469 14.9531C9.72421 13.6305 9.042 11.9793 9 10C9.042 8.02067 9.72421 6.36954 11.0469 5.04688C12.3695 3.72421 14.0207 3.042 16 3Z" fill="white"/>
</svg>
