<svg width="1362" height="238" viewBox="0 0 1362 238" fill="none" xmlns="http://www.w3.org/2000/svg">
<path opacity="0.2" d="M16 225C24.4725 204.871 58.54 176.276 74.7428 163.495C98.7608 144.548 118.829 132.452 144.217 115.409C171.07 97.3821 199.967 79.5674 229.832 66.5316C275.055 46.7918 327.9 39.3658 376.364 39.3658C432.283 39.3658 485.351 48.1635 534.49 73.2194C580.278 96.5662 621.416 131.879 664.621 159.364C698.692 181.039 740.805 210.769 781.884 219.395C803.295 223.891 851.179 216.252 867.205 205.43C890.927 189.412 936.115 164.054 958.708 151.194C1002.2 120.441 1060.14 90.9786 1106.13 63.968C1187.05 16.4438 1270.76 17.0003 1362 17.0003" stroke="white" stroke-width="33"/>
<path d="M16 225C24.4725 204.871 58.54 176.276 74.7428 163.495C98.7608 144.548 118.829 132.452 144.217 115.409C171.07 97.3821 199.967 79.5674 229.832 66.5316C275.055 46.7918 327.9 39.3658 376.364 39.3658C432.283 39.3658 485.35 48.1635 534.49 73.2194C580.278 96.5662 621.416 131.879 664.621 159.364C698.692 181.039 740.805 210.769 781.884 219.395C803.295 223.891 851.179 216.251 867.205 205.43C890.927 189.412 936.115 164.054 958.708 151.194C1002.2 120.441 1060.14 90.9786 1106.13 63.968C1187.05 16.4438 1270.76 17.0003 1362 17.0003" stroke="#21836D" stroke-width="4"/>
</svg>
