<svg width="690" height="210" viewBox="0 0 690 210" fill="none" xmlns="http://www.w3.org/2000/svg">
<path opacity="0.1" d="M-686 256C-675.834 231.613 -634.958 196.969 -615.517 181.484C-586.699 158.53 -562.62 143.875 -532.158 123.226C-499.939 101.386 -465.266 79.8028 -429.434 64.0095C-375.173 40.0939 -311.767 31.0971 -253.616 31.0971C-186.522 31.0971 -122.849 41.7558 -63.8891 72.1119C-8.95068 100.397 40.4095 143.181 92.249 176.48C133.129 202.739 183.658 238.758 232.947 249.209C258.637 254.656 316.091 245.401 335.32 232.29C363.782 212.884 418.001 182.161 445.11 166.581C497.294 129.323 566.811 93.6279 621.994 60.9035C719.087 3.32613 819.529 4.00035 929 4.00035" stroke="#21836D" stroke-width="100"/>
<path d="M-686 256C-675.834 231.613 -634.958 196.969 -615.517 181.484C-586.699 158.53 -562.62 143.875 -532.158 123.226C-499.939 101.386 -465.266 79.8028 -429.434 64.0095C-375.173 40.0939 -311.767 31.0971 -253.616 31.0971C-186.522 31.0971 -122.849 41.7558 -63.8891 72.1119C-8.9507 100.397 40.4095 143.181 92.2489 176.48C133.129 202.739 183.658 238.758 232.947 249.209C258.637 254.656 316.091 245.401 335.32 232.29C363.782 212.884 418.001 182.161 445.11 166.581C497.294 129.323 566.811 93.6279 621.994 60.9035C719.087 3.32613 819.529 4.00035 929 4.00035" stroke="white" stroke-width="6"/>
</svg>
