<svg width="670" height="210" viewBox="0 0 670 210" fill="none" xmlns="http://www.w3.org/2000/svg">
<path opacity="0.2" d="M-24 276C-13.8342 251.613 27.0417 216.969 46.4826 201.484C75.3006 178.53 99.3798 163.875 129.842 143.226C162.061 121.386 196.734 99.8028 232.566 84.0095C286.827 60.0939 350.233 51.0971 408.384 51.0971C475.478 51.0971 539.151 61.7558 598.111 92.1119C653.049 120.397 702.41 163.181 754.249 196.48C795.129 222.739 845.658 258.758 894.947 269.209C920.637 274.656 978.091 265.401 997.32 252.29C1025.78 232.884 1080 202.161 1107.11 186.581C1159.29 149.323 1228.81 113.628 1283.99 80.9035C1381.09 23.3261 1481.53 24.0004 1591 24.0004" stroke="white" stroke-width="100"/>
<path d="M-24 276C-13.8342 251.613 27.0417 216.969 46.4826 201.484C75.3006 178.53 99.3798 163.875 129.842 143.226C162.061 121.386 196.734 99.8028 232.566 84.0095C286.827 60.0939 350.233 51.0971 408.384 51.0971C475.478 51.0971 539.151 61.7558 598.111 92.1119C653.049 120.397 702.409 163.181 754.249 196.48C795.129 222.739 845.658 258.758 894.947 269.209C920.637 274.656 978.091 265.401 997.32 252.29C1025.78 232.884 1080 202.161 1107.11 186.581C1159.29 149.323 1228.81 113.628 1283.99 80.9035C1381.09 23.3261 1481.53 24.0004 1591 24.0004" stroke="#21836D" stroke-width="6"/>
</svg>
