<svg width="128" height="24" viewBox="0 0 128 24" fill="none" xmlns="http://www.w3.org/2000/svg">
<path d="M9.15323 5.408C10.4202 3.136 11.0532 2 12.0002 2C12.9472 2 13.5802 3.136 14.8472 5.408L15.1752 5.996C15.5352 6.642 15.7152 6.965 15.9952 7.178C16.2752 7.391 16.6252 7.47 17.3252 7.628L17.9612 7.772C20.4212 8.329 21.6502 8.607 21.9432 9.548C22.2352 10.488 21.3972 11.469 19.7202 13.43L19.2862 13.937C18.8102 14.494 18.5712 14.773 18.4642 15.117C18.3572 15.462 18.3932 15.834 18.4652 16.577L18.5312 17.254C18.7842 19.871 18.9112 21.179 18.1452 21.76C17.3792 22.341 16.2272 21.811 13.9252 20.751L13.3282 20.477C12.6742 20.175 12.3472 20.025 12.0002 20.025C11.6532 20.025 11.3262 20.175 10.6722 20.477L10.0762 20.751C7.77323 21.811 6.62123 22.341 5.85624 21.761C5.08924 21.179 5.21623 19.871 5.46923 17.254L5.53523 16.578C5.60723 15.834 5.64323 15.462 5.53523 15.118C5.42923 14.773 5.19024 14.494 4.71424 13.938L4.28024 13.43C2.60324 11.47 1.76523 10.489 2.05723 9.548C2.34923 8.607 3.58024 8.328 6.04024 7.772L6.67624 7.628C7.37524 7.47 7.72424 7.391 8.00524 7.178C8.28624 6.965 8.46523 6.642 8.82523 5.996L9.15323 5.408Z" fill="#21836D"/>
<path d="M35.1532 5.408C36.4202 3.136 37.0532 2 38.0002 2C38.9472 2 39.5802 3.136 40.8472 5.408L41.1752 5.996C41.5352 6.642 41.7152 6.965 41.9952 7.178C42.2752 7.391 42.6252 7.47 43.3252 7.628L43.9612 7.772C46.4212 8.329 47.6502 8.607 47.9432 9.548C48.2352 10.488 47.3972 11.469 45.7202 13.43L45.2862 13.937C44.8102 14.494 44.5712 14.773 44.4642 15.117C44.3572 15.462 44.3932 15.834 44.4652 16.577L44.5312 17.254C44.7842 19.871 44.9112 21.179 44.1452 21.76C43.3792 22.341 42.2272 21.811 39.9252 20.751L39.3282 20.477C38.6742 20.175 38.3472 20.025 38.0002 20.025C37.6532 20.025 37.3262 20.175 36.6722 20.477L36.0762 20.751C33.7732 21.811 32.6212 22.341 31.8562 21.761C31.0892 21.179 31.2162 19.871 31.4692 17.254L31.5352 16.578C31.6072 15.834 31.6432 15.462 31.5352 15.118C31.4292 14.773 31.1902 14.494 30.7142 13.938L30.2802 13.43C28.6032 11.47 27.7652 10.489 28.0572 9.548C28.3492 8.607 29.5802 8.328 32.0402 7.772L32.6762 7.628C33.3752 7.47 33.7242 7.391 34.0052 7.178C34.2862 6.965 34.4652 6.642 34.8252 5.996L35.1532 5.408Z" fill="#21836D"/>
<path d="M61.1532 5.408C62.4202 3.136 63.0532 2 64.0002 2C64.9472 2 65.5802 3.136 66.8472 5.408L67.1752 5.996C67.5352 6.642 67.7152 6.965 67.9952 7.178C68.2752 7.391 68.6252 7.47 69.3252 7.628L69.9612 7.772C72.4212 8.329 73.6502 8.607 73.9432 9.548C74.2352 10.488 73.3972 11.469 71.7202 13.43L71.2862 13.937C70.8102 14.494 70.5712 14.773 70.4642 15.117C70.3572 15.462 70.3932 15.834 70.4652 16.577L70.5312 17.254C70.7842 19.871 70.9112 21.179 70.1452 21.76C69.3792 22.341 68.2272 21.811 65.9252 20.751L65.3282 20.477C64.6742 20.175 64.3472 20.025 64.0002 20.025C63.6532 20.025 63.3262 20.175 62.6722 20.477L62.0762 20.751C59.7732 21.811 58.6212 22.341 57.8562 21.761C57.0892 21.179 57.2162 19.871 57.4692 17.254L57.5352 16.578C57.6072 15.834 57.6432 15.462 57.5352 15.118C57.4292 14.773 57.1902 14.494 56.7142 13.938L56.2802 13.43C54.6032 11.47 53.7652 10.489 54.0572 9.548C54.3492 8.607 55.5802 8.328 58.0402 7.772L58.6762 7.628C59.3752 7.47 59.7242 7.391 60.0052 7.178C60.2862 6.965 60.4652 6.642 60.8252 5.996L61.1532 5.408Z" fill="#21836D"/>
<path d="M87.1532 5.408C88.4202 3.136 89.0532 2 90.0002 2C90.9472 2 91.5802 3.136 92.8472 5.408L93.1752 5.996C93.5352 6.642 93.7152 6.965 93.9952 7.178C94.2752 7.391 94.6252 7.47 95.3252 7.628L95.9612 7.772C98.4212 8.329 99.6502 8.607 99.9432 9.548C100.235 10.488 99.3972 11.469 97.7202 13.43L97.2862 13.937C96.8102 14.494 96.5712 14.773 96.4642 15.117C96.3572 15.462 96.3932 15.834 96.4652 16.577L96.5312 17.254C96.7842 19.871 96.9112 21.179 96.1452 21.76C95.3792 22.341 94.2272 21.811 91.9252 20.751L91.3282 20.477C90.6742 20.175 90.3472 20.025 90.0002 20.025C89.6532 20.025 89.3262 20.175 88.6722 20.477L88.0762 20.751C85.7732 21.811 84.6212 22.341 83.8562 21.761C83.0892 21.179 83.2162 19.871 83.4692 17.254L83.5352 16.578C83.6072 15.834 83.6432 15.462 83.5352 15.118C83.4292 14.773 83.1902 14.494 82.7142 13.938L82.2802 13.43C80.6032 11.47 79.7652 10.489 80.0572 9.548C80.3492 8.607 81.5802 8.328 84.0402 7.772L84.6762 7.628C85.3752 7.47 85.7242 7.391 86.0052 7.178C86.2862 6.965 86.4652 6.642 86.8252 5.996L87.1532 5.408Z" fill="#21836D"/>
<path d="M113.153 5.408C114.42 3.136 115.053 2 116 2C116.947 2 117.58 3.136 118.847 5.408L119.175 5.996C119.535 6.642 119.715 6.965 119.995 7.178C120.275 7.391 120.625 7.47 121.325 7.628L121.961 7.772C124.421 8.329 125.65 8.607 125.943 9.548C126.235 10.488 125.397 11.469 123.72 13.43L123.286 13.937C122.81 14.494 122.571 14.773 122.464 15.117C122.357 15.462 122.393 15.834 122.465 16.577L122.531 17.254C122.784 19.871 122.911 21.179 122.145 21.76C121.379 22.341 120.227 21.811 117.925 20.751L117.328 20.477C116.674 20.175 116.347 20.025 116 20.025C115.653 20.025 115.326 20.175 114.672 20.477L114.076 20.751C111.773 21.811 110.621 22.341 109.856 21.761C109.089 21.179 109.216 19.871 109.469 17.254L109.535 16.578C109.607 15.834 109.643 15.462 109.535 15.118C109.429 14.773 109.19 14.494 108.714 13.938L108.28 13.43C106.603 11.47 105.765 10.489 106.057 9.548C106.349 8.607 107.58 8.328 110.04 7.772L110.676 7.628C111.375 7.47 111.724 7.391 112.005 7.178C112.286 6.965 112.465 6.642 112.825 5.996L113.153 5.408Z" fill="#21836D"/>
</svg>
