<svg width="670" height="210" viewBox="0 0 670 210" fill="none" xmlns="http://www.w3.org/2000/svg">
<path opacity="0.2" d="M24 256C34.1658 231.613 75.0417 196.969 94.4826 181.484C123.301 158.53 147.38 143.875 177.842 123.226C210.061 101.386 244.734 79.8028 280.566 64.0095C334.827 40.0939 398.233 31.0971 456.384 31.0971C523.478 31.0971 587.151 41.7558 646.111 72.1119C701.049 100.397 750.41 143.181 802.249 176.48C843.129 202.739 893.658 238.758 942.947 249.209C968.637 254.656 1026.09 245.401 1045.32 232.29C1073.78 212.884 1128 182.161 1155.11 166.581C1207.29 129.323 1276.81 93.6279 1331.99 60.9035C1429.09 3.32613 1529.53 4.00035 1639 4.00035" stroke="white" stroke-width="100"/>
<path d="M24 256C34.1658 231.613 75.0417 196.969 94.4826 181.484C123.301 158.53 147.38 143.875 177.842 123.226C210.061 101.386 244.734 79.8028 280.566 64.0095C334.827 40.0939 398.233 31.0971 456.384 31.0971C523.478 31.0971 587.151 41.7558 646.111 72.1119C701.049 100.397 750.409 143.181 802.249 176.48C843.129 202.739 893.658 238.758 942.947 249.209C968.637 254.656 1026.09 245.401 1045.32 232.29C1073.78 212.884 1128 182.161 1155.11 166.581C1207.29 129.323 1276.81 93.6279 1331.99 60.9035C1429.09 3.32613 1529.53 4.00035 1639 4.00035" stroke="#21836D" stroke-width="6"/>
</svg>
