<svg width="18" height="17" viewBox="0 0 18 17" fill="none" xmlns="http://www.w3.org/2000/svg">
<path d="M12.557 10.906L12.102 11.359C12.102 11.359 11.019 12.435 8.06398 9.49698C5.10898 6.55898 6.19198 5.48298 6.19198 5.48298L6.47798 5.19698C7.18498 4.49498 7.25198 3.36698 6.63498 2.54298L5.37498 0.859979C4.61098 -0.160021 3.13598 -0.29502 2.26098 0.57498L0.690978 2.13498C0.257978 2.56698 -0.0320219 3.12498 0.00297807 3.74498C0.0929781 5.33198 0.810978 8.74498 4.81498 12.727C9.06198 16.949 13.047 17.117 14.676 16.965C15.192 16.917 15.64 16.655 16.001 16.295L17.421 14.883C18.381 13.93 18.111 12.295 16.883 11.628L14.973 10.589C14.167 10.152 13.187 10.28 12.557 10.906Z" fill="#626975"/>
</svg>
