<svg width="32" height="32" viewBox="0 0 32 32" fill="none" xmlns="http://www.w3.org/2000/svg">
<path d="M19.5569 18.906L19.1019 19.359C19.1019 19.359 18.0189 20.435 15.0639 17.497C12.1089 14.559 13.1919 13.483 13.1919 13.483L13.4779 13.197C14.1849 12.495 14.2519 11.367 13.6349 10.543L12.3749 8.86001C11.6109 7.84001 10.1359 7.70501 9.26086 8.57501L7.69086 10.135C7.25786 10.567 6.96786 11.125 7.00286 11.745C7.09286 13.332 7.81086 16.745 11.8149 20.727C16.0619 24.949 20.0469 25.117 21.6759 24.965C22.1919 24.917 22.6399 24.655 23.0009 24.295L24.4209 22.883C25.3809 21.93 25.1109 20.295 23.8829 19.628L21.9729 18.589C21.1669 18.152 20.1869 18.28 19.5569 18.906Z" fill="#626975"/>
</svg>
