<svg width="32" height="32" viewBox="0 0 32 32" fill="none" xmlns="http://www.w3.org/2000/svg">
<path d="M13.75 16C13.75 15.4033 13.9871 14.831 14.409 14.409C14.831 13.9871 15.4033 13.75 16 13.75C16.5967 13.75 17.169 13.9871 17.591 14.409C18.0129 14.831 18.25 15.4033 18.25 16C18.25 16.5967 18.0129 17.169 17.591 17.591C17.169 18.0129 16.5967 18.25 16 18.25C15.4033 18.25 14.831 18.0129 14.409 17.591C13.9871 17.169 13.75 16.5967 13.75 16Z" fill="#626975"/>
<path fill-rule="evenodd" clip-rule="evenodd" d="M6 16C6 17.64 6.425 18.191 7.275 19.296C8.972 21.5 11.818 24 16 24C20.182 24 23.028 21.5 24.725 19.296C25.575 18.192 26 17.639 26 16C26 14.36 25.575 13.809 24.725 12.704C23.028 10.5 20.182 8 16 8C11.818 8 8.972 10.5 7.275 12.704C6.425 13.81 6 14.361 6 16ZM16 12.25C15.0054 12.25 14.0516 12.6451 13.3483 13.3483C12.6451 14.0516 12.25 15.0054 12.25 16C12.25 16.9946 12.6451 17.9484 13.3483 18.6517C14.0516 19.3549 15.0054 19.75 16 19.75C16.9946 19.75 17.9484 19.3549 18.6517 18.6517C19.3549 17.9484 19.75 16.9946 19.75 16C19.75 15.0054 19.3549 14.0516 18.6517 13.3483C17.9484 12.6451 16.9946 12.25 16 12.25Z" fill="#626975"/>
</svg>
