<svg width="18" height="18" viewBox="0 0 18 18" fill="none" xmlns="http://www.w3.org/2000/svg">
<path d="M8.56088 14.5234L4.41088 17.0234C4.22754 17.14 4.03588 17.19 3.83588 17.1734C3.63588 17.1567 3.46088 17.09 3.31088 16.9734C3.16088 16.8567 3.04421 16.711 2.96088 16.5364C2.87754 16.3617 2.86088 16.1657 2.91088 15.9484L4.01088 11.2234L0.335876 8.04836C0.169209 7.89836 0.0652091 7.72736 0.0238758 7.53536C-0.0174575 7.34336 -0.00512426 7.15603 0.0608757 6.97336C0.126876 6.7907 0.226876 6.6407 0.360876 6.52336C0.494876 6.40603 0.678209 6.33103 0.910876 6.29836L5.76088 5.87336L7.63588 1.42336C7.71921 1.22336 7.84854 1.07336 8.02388 0.973364C8.19921 0.873364 8.37821 0.823364 8.56088 0.823364C8.74354 0.823364 8.92254 0.873364 9.09788 0.973364C9.27321 1.07336 9.40254 1.22336 9.48588 1.42336L11.3609 5.87336L16.2109 6.29836C16.4442 6.3317 16.6275 6.4067 16.7609 6.52336C16.8942 6.64003 16.9942 6.79003 17.0609 6.97336C17.1275 7.1567 17.1402 7.34436 17.0989 7.53636C17.0575 7.72836 16.9532 7.89903 16.7859 8.04836L13.1109 11.2234L14.2109 15.9484C14.2609 16.165 14.2442 16.361 14.1609 16.5364C14.0775 16.7117 13.9609 16.8574 13.8109 16.9734C13.6609 17.0894 13.4859 17.156 13.2859 17.1734C13.0859 17.1907 12.8942 17.1407 12.7109 17.0234L8.56088 14.5234Z" fill="#626975"/>
</svg>
