<svg width="20" height="16" viewBox="0 0 20 16" fill="none" xmlns="http://www.w3.org/2000/svg">
<path d="M20 3.53491V12.9999C20 13.7651 19.7077 14.5014 19.1827 15.0582C18.6578 15.6149 17.9399 15.95 17.176 15.9949L17 15.9999H3C2.23479 16 1.49849 15.7076 0.941739 15.1826C0.384993 14.6577 0.0498925 13.9398 0.00500011 13.1759L0 12.9999V3.53491L9.445 9.83192L9.561 9.89792C9.69771 9.96472 9.84785 9.99944 10 9.99944C10.1522 9.99944 10.3023 9.96472 10.439 9.89792L10.555 9.83192L20 3.53491Z" fill="#626975"/>
<path d="M17.0007 0C18.0807 0 19.0277 0.570001 19.5557 1.427L10.0007 7.79701L0.445671 1.427C0.696463 1.01983 1.04096 0.678502 1.45044 0.43149C1.85992 0.184479 2.32252 0.0389373 2.79967 0.00699998L3.00067 0H17.0007Z" fill="#626975"/>
</svg>
